<svg width="20" height="19" viewBox="0 0 20 19" fill="none" xmlns="http://www.w3.org/2000/svg">
<path d="M9.99992 13.875C10.2596 13.875 10.4773 13.7911 10.653 13.6234C10.8287 13.4557 10.9166 13.2479 10.9166 13C10.9166 12.7521 10.8287 12.5443 10.653 12.3766C10.4773 12.2089 10.2596 12.125 9.99992 12.125C9.7402 12.125 9.52249 12.2089 9.34679 12.3766C9.1711 12.5443 9.08325 12.7521 9.08325 13C9.08325 13.2479 9.1711 13.4557 9.34679 13.6234C9.52249 13.7911 9.7402 13.875 9.99992 13.875ZM9.08325 10.375H10.9166V5.125H9.08325V10.375ZM9.99992 18.25C8.73186 18.25 7.5402 18.0203 6.42492 17.5609C5.30964 17.1016 4.3395 16.4781 3.5145 15.6906C2.6895 14.9031 2.03638 13.9771 1.55513 12.9125C1.07388 11.8479 0.833252 10.7104 0.833252 9.5C0.833252 8.28958 1.07388 7.15208 1.55513 6.0875C2.03638 5.02292 2.6895 4.09687 3.5145 3.30937C4.3395 2.52187 5.30964 1.89844 6.42492 1.43906C7.5402 0.979687 8.73186 0.75 9.99992 0.75C11.268 0.75 12.4596 0.979687 13.5749 1.43906C14.6902 1.89844 15.6603 2.52187 16.4853 3.30937C17.3103 4.09687 17.9635 5.02292 18.4447 6.0875C18.926 7.15208 19.1666 8.28958 19.1666 9.5C19.1666 10.7104 18.926 11.8479 18.4447 12.9125C17.9635 13.9771 17.3103 14.9031 16.4853 15.6906C15.6603 16.4781 14.6902 17.1016 13.5749 17.5609C12.4596 18.0203 11.268 18.25 9.99992 18.25Z" fill="white"/>
</svg>
